<svg xmlns="http://www.w3.org/2000/svg" viewBox="0 0 1024 1024"><defs><style>.cls-1{fill:#c7cedf;fill-rule:evenodd;}</style></defs><title>main-off</title><g id="main-off-26"><path class="cls-1" d="M724,269.3A196.5,196.5,0,0,0,358.2,204,105.8,105.8,0,0,0,229.4,307.1a107.3,107.3,0,0,0,2.8,24.4A148.5,148.5,0,0,0,169,452.9c.2,80.2,64.5,151.3,140.3,155.5H695.9c42.4-3,81.9-22.6,111.3-54.9a173.4,173.4,0,0,0,45.4-116.7C852.6,357.7,798,287.5,724,269.3ZM694.5,578.1H310.6c-60.3-3.7-111-60.8-111-125.2a118.1,118.1,0,0,1,58.4-101.6,15.1,15.1,0,0,0,6.5-18.4,73.3,73.3,0,0,1-4.5-25.8,75.5,75.5,0,0,1,75.3-75.3,73,73,0,0,1,25.6,4.5,15.5,15.5,0,0,0,19.1-7.7,166.6,166.6,0,0,1,150.2-95.3c86.1,0,157,64.5,165.2,149.8a15.3,15.3,0,0,0,12.6,13.6c65.3,11.2,114.5,71.3,114.5,140C822.6,509.5,765.2,572.8,694.5,578.1Z"/><path class="cls-1" d="M527.5,766.8v-78a15.2,15.2,0,1,0-30.5,0v78A78.4,78.4,0,0,0,512,922.2c43.2,0,78.7-35,78.7-78.4C590.7,805.8,563.4,774,527.5,766.8ZM512.4,891.9a48.1,48.1,0,1,1,48-48.1A47.8,47.8,0,0,1,512.4,891.9Z"/><path class="cls-1" d="M410.8,843.8a15.2,15.2,0,1,0-15.2,15.2,15.3,15.3,0,0,0,15.2-15.2Z"/><path class="cls-1" d="M303.8,843.8a15.2,15.2,0,1,0-15.2,15.2,15.2,15.2,0,0,0,15.2-15.2Z"/><path class="cls-1" d="M326.9,843.8a15.2,15.2,0,1,0,15.2-15.2,15.3,15.3,0,0,0-15.2,15.2Z"/><path class="cls-1" d="M224.2,833.1a15.1,15.1,0,0,0-4.4,10.7,15.8,15.8,0,0,0,4.4,10.7,15.2,15.2,0,1,0,10.7-26,16.3,16.3,0,0,0-10.7,4.5Z"/><path class="cls-1" d="M800.4,854.6a15,15,0,1,0-10.7,4.5,15.2,15.2,0,0,0,10.7-4.5Z"/><path class="cls-1" d="M751.3,843.8a15.2,15.2,0,1,0-15.2,15.2,15.2,15.2,0,0,0,15.2-15.2Z"/><path class="cls-1" d="M682.7,859.1a15.2,15.2,0,1,0-15.2-15.2,15.2,15.2,0,0,0,15.2,15.2Z"/><path class="cls-1" d="M644.3,843.8a15.2,15.2,0,1,0-15.2,15.2,15.2,15.2,0,0,0,15.2-15.2Z"/></g></svg>