<svg xmlns="http://www.w3.org/2000/svg" viewBox="0 0 1024 1024"><defs><style>.cls-1{fill:#c7cedf;fill-rule:evenodd;}</style></defs><title>mine-off</title><g id="mine-off-26"><path class="cls-1" d="M511.2,103C352.9,103,224,231.9,224,390.2a286,286,0,0,0,77.3,195.6,18.3,18.3,0,0,0,3.5,3.7,286.5,286.5,0,0,0,206.3,87.9c158.3,0,287.2-128.9,287.2-287.2S669.5,103,511.2,103ZM343.5,584.3c78-25.4,105.4-56.4,115-76.5,14.4,6.5,30.5,9.9,48.5,10.2h3.7c19.4-.3,36.8-4.4,52-11.9,8.9,19.9,35.6,52,116,78.2a255.7,255.7,0,0,1-335.2,0Zm165.8-96.6h-1c-26.6-.3-46.9-8.7-61.9-25.8-38.2-42.8-29.8-124.5-29.8-125.3v-1c4-88.7,69.6-95.6,89.7-95.6h5.2c19.9,0,85.5,6.9,89.7,95.6v1c.2.8,8.4,82.3-29.8,125.3-15.2,17.1-35.5,25.4-62.1,25.8Zm194,72.5c-110.8-32.1-114.5-71.5-114.5-71.8v.8h-1.7a91,91,0,0,0,6.9-7c45.7-51.5,38.2-139.9,37.3-148.3-4.4-91.7-67.3-124.3-120-124.3H506c-52.5,0-115.5,32.5-120,124.2-.8,8.2-8.5,96.7,37.3,148.3,2.8,3.2,6,6.2,9,9-2.5,8.4-18.9,41.3-113.6,69a255.4,255.4,0,0,1-64.6-170c0-141.6,115.1-256.9,256.9-256.9S767.9,248.3,767.9,390a255,255,0,0,1-64.6,170.2Zm33.8,230.1a15.3,15.3,0,0,0-15.2-15.2H300.5a15.2,15.2,0,0,0,0,30.5H721.9a15.3,15.3,0,0,0,15.2-15.2ZM663,907a15.3,15.3,0,0,0-15.2-15.2H374.6a15.2,15.2,0,0,0,0,30.5H647.9A15.4,15.4,0,0,0,663,907Z"/></g></svg>