<svg xmlns="http://www.w3.org/2000/svg" viewBox="0 0 1024 1024"><defs><style>.cls-1{fill:#f29360;}.cls-1,.cls-2{fill-rule:evenodd;}.cls-2{fill:#445c95;}</style></defs><title>pay-on</title><g id="pay-on-26"><path class="cls-1" d="M380.4,148.2c-126.5,0-229,102.5-229,229s102.5,229,229,229,229-102.5,229-229S506.9,148.2,380.4,148.2Zm21.2,337.5h-6.2v29.9a15.2,15.2,0,0,1-30.4,0V485.7H325.1a15.2,15.2,0,0,1,0-30.4h76.3a31.4,31.4,0,1,0,0-62.8H359A61.7,61.7,0,1,1,359,269h6.2V239.6a15.2,15.2,0,1,1,30.4,0v29.2h38.6a15.2,15.2,0,1,1,0,30.4h-75a31.4,31.4,0,0,0,0,62.8h42.4a61.8,61.8,0,1,1,0,123.6Z"/><path class="cls-2" d="M921,732.4a4.9,4.9,0,0,0-.3-1.5c-.2-.5-.2-1-.3-1.3a2077.1,2077.1,0,0,0-1.3-2.7,3,3,0,0,0-.8-1.2c-.3-.3-.5-.8-.8-1.2l-1.2-1-1-1a9.4,9.4,0,0,0-1.3-.8,7.3,7.3,0,0,0-1.2-.7L728.4,630.2a5,5,0,0,0-1.7-.7c-3.2-1.2-79.2-27.7-141.3.2L448.2,679.3l-1.2.5c-19.7,9-30.1,29.2-25.9,50.5s21.2,35.9,42.6,36.9h.3c1.3,0,7.4-.3,69.8-4.3l57.8-3.7a15.1,15.1,0,0,0-.3-30.2l-59.3,3.7-67.5,4.3c-10.5-.8-13-9.7-13.7-12.4a15.1,15.1,0,0,1,8.4-17l137-49.6,1.2-.5c48.1-21.9,110.9-2.2,118.4.2l82,40.4L752.8,804.4a91.6,91.6,0,0,0-74.3-9.9L494.4,849.9A86.7,86.7,0,0,1,428,843L139.7,686.8c-10.4-5.7-7-15.5-6.2-17.5s5.3-11,15.9-8.2l224,74.7a15.2,15.2,0,0,0,9.7-28.7L158.6,632a1.5,1.5,0,0,0-.8-.2c-22.2-6-43.8,4.7-52.3,26.1s-.5,44.3,19.9,55.5L413.8,870.1a116.6,116.6,0,0,0,89.4,9.2L687.3,824a60.5,60.5,0,0,1,50,6.8L831.2,890l1.3.7.3.2h.2c.2.2.3.2.7.2l1.2.5.7.2,1.2.3a1,1,0,0,1,.7.2l1.8.2a8.1,8.1,0,0,0,2-.2,1,1,0,0,0,.7-.2,3.9,3.9,0,0,0,1.3-.3l.7-.2,1.2-.5.7-.3,1.2-.7.7-.3,1-.7.7-.5.8-.8.7-.7a3.5,3.5,0,0,0,.7-1l.5-.7a.2.2,0,0,1,.2-.2.6.6,0,0,1,.2-.3,10.1,10.1,0,0,0,.7-1.3l66.8-142.3.5-1.3a11.3,11.3,0,0,1,.5-1.3,4.6,4.6,0,0,0,.2-1.5c0-.5.2-1,.2-1.5a6.8,6.8,0,0,0,0-3ZM832.8,855l-54-34.1,46.3-109.3,61,29.9Z"/><path class="cls-2" d="M380.4,621.3c134.7,0,244.1-109.6,244.1-244.1S514.9,133,380.4,133,136.2,242.6,136.2,377.2,245.8,621.3,380.4,621.3Zm0-457.9c117.9,0,213.8,95.9,213.8,213.8S498.4,591.1,380.4,591.1,166.6,495.2,166.6,377.2s95.9-213.8,213.8-213.8Z"/></g></svg>